<svg width="256" height="257" xmlns="http://www.w3.org/2000/svg" preserveAspectRatio="xMidYMid"><path fill="#FFF" d="M147.386 69.071L147.129 0h-38.515l.257 69.071 19.257 26.448zM108.871 187.442v69.328h38.515v-69.328l-19.258-26.447z"/><path fill="#00F2E6" d="M147.386 187.442l40.57 55.976 31.069-22.596-40.57-55.975-31.069-10.015zM108.871 69.071L68.044 13.095 36.975 35.691l40.57 55.976 31.326 10.014z"/><path fill="#00B9F1" d="M77.545 91.667L11.811 70.355 0 106.816l65.733 21.569 31.069-10.271zM159.198 138.399l19.257 26.448 65.734 21.311L256 149.697l-65.733-21.312z"/><path fill="#D63AFF" d="M190.267 128.385L256 106.816l-11.811-36.461-65.734 21.312-19.257 26.447zM65.733 128.385L0 149.697l11.811 36.461 65.734-21.311 19.257-26.448z"/><path fill="#FB015B" d="M77.545 164.847l-40.57 55.975 31.069 22.596 40.827-55.976v-32.61zM178.455 91.667l40.57-55.976-31.069-22.596-40.57 55.976v32.61z"/></svg>
