<svg data-name="Layer 1" xmlns="http://www.w3.org/2000/svg" viewBox="0 0 204.73 243.53"><path d="M22.85 195.53h17.58v8.92H22.85v20.24a13.5 13.5 0 00.59 4.29 6.52 6.52 0 001.67 2.72 6.25 6.25 0 002.64 1.48 12.75 12.75 0 003.46.43c.92 0 1.87 0 2.85-.13s1.9-.2 2.8-.35 1.69-.24 2.46-.39 1.43-.29 2-.43l1.18 8.31a14.8 14.8 0 01-3 1.28 28.87 28.87 0 01-3.61.89c-1.28.24-2.61.42-4 .55s-2.73.19-4.07.19a22.71 22.71 0 01-7-1 13.46 13.46 0 01-5.38-3.2 13.87 13.87 0 01-3.44-5.48 23.35 23.35 0 01-1.22-8v-21.4H0v-8.92h10.75V184h12.1zM65.94 218.94v23.68H53.71v-63.37H75a34 34 0 019.53 1.24 21.33 21.33 0 017.31 3.64 15.9 15.9 0 014.63 6 19.65 19.65 0 011.64 8.27 21.37 21.37 0 01-.81 6.11 16.26 16.26 0 01-5.92 8.64 24.07 24.07 0 01-4.72 2.79l13.62 26.15v.57H87.13l-11.92-23.72zM75 209a14.29 14.29 0 005-.8 8.69 8.69 0 003.51-2.33A8.42 8.42 0 0085.2 203a11.55 11.55 0 00.58-3.79 12.08 12.08 0 00-.76-4.46 7.89 7.89 0 00-2.28-3.2 9.65 9.65 0 00-3.31-1.74 15.31 15.31 0 00-4.48-.61h-9V209zM120.21 242.62H108v-63.37h21.67a27.52 27.52 0 019.36 1.5 21.3 21.3 0 017.14 4.16 18.64 18.64 0 014.5 6.44 21.08 21.08 0 011.59 8.31 19.33 19.33 0 01-1.59 7.88 18 18 0 01-4.5 6.22 21.09 21.09 0 01-7.17 4.14 27.77 27.77 0 01-9.36 1.48h-9.44zm9.44-33.16a12 12 0 004.53-.79 9.24 9.24 0 003.22-2.13 8.94 8.94 0 001.89-3.11 10.87 10.87 0 00.64-3.68 13.09 13.09 0 00-.64-4.13 9.57 9.57 0 00-1.89-3.36 9.27 9.27 0 00-3.22-2.26 11.41 11.41 0 00-4.53-.83h-9.44v20.29zM202.62 231.39a20.24 20.24 0 01-4.72 6.53 20.83 20.83 0 01-7.05 4.16 26.91 26.91 0 01-9.06 1.45 24.6 24.6 0 01-7.24-1 20.27 20.27 0 01-6-2.94 20.56 20.56 0 01-4.33-4.31 26.93 26.93 0 01-3.2-5.57 33.25 33.25 0 01-1.93-6.7 42.66 42.66 0 01-.68-7.75v-8.53a42.67 42.67 0 01.61-7.29 31.52 31.52 0 011.83-6.42 24.32 24.32 0 013.66-6.44 23.41 23.41 0 015.13-4.78 20.92 20.92 0 015.64-2.55 23.28 23.28 0 016.59-.89 27 27 0 019.29 1.48 19 19 0 0111.47 10.92 29.92 29.92 0 012.09 8.92h-12.18a20.48 20.48 0 00-.84-5 9.88 9.88 0 00-1.94-3.57 8.33 8.33 0 00-3.24-2.11 13.38 13.38 0 00-4.64-.72 11.39 11.39 0 00-2.68.31 8.77 8.77 0 00-2.28.91 9.06 9.06 0 00-3 3 17.57 17.57 0 00-2 4.51 27.2 27.2 0 00-.82 4.42 47 47 0 00-.26 5.2v8.61a49 49 0 00.41 6.77 23.13 23.13 0 001.28 5.2 12.79 12.79 0 001.46 2.7 8.6 8.6 0 001.94 2 8 8 0 002.63 1.28 11.67 11.67 0 003.24.42 14.33 14.33 0 004.31-.61 8.24 8.24 0 003.27-1.92 9 9 0 002.13-3.35 16.77 16.77 0 001-4.92h12.23a24.31 24.31 0 01-2.12 8.58zM101.76 0L71 17.77v35.54l30.78 17.77 30.78-17.77V17.77zm18.78 20.08l-18.78 10.84L83 20.08l18.76-10.84zM79 27l18.76 10.85v21.68L79 48.69zm26.78 32.52V37.85L124.54 27v21.69zM149.06 73.9l-30.78 17.77v35.53l30.78 17.8 30.78-17.77V91.67zM167.84 94l-18.78 10.85L130.28 94l18.78-10.84zm-41.56 6.93l18.78 10.84v21.69l-18.78-10.84zm26.78 32.53v-21.72l18.78-10.84v21.69zM55.67 73.9L24.89 91.67v35.53L55.67 145l30.78-17.8V91.67zM74.45 94l-18.78 10.82L36.89 94l18.78-10.87zm-41.56 6.9l18.78 10.84v21.69l-18.78-10.84zm26.78 32.53v-21.69l18.78-10.84v21.69z" fill="#398ccb"/><path d="M132.54 27.53v9.24l29.3 16.92v27.58l8 4.62V49.07zM127.41 132.47l-25.24 14.57-25.04-14.46-8 4.62 33.04 19.08 33.24-19.19-1.74-1-6.26-3.62zM42.5 53.69l28.48-16.45v-9.23L34.5 49.07v37.05l8-4.62V53.69zM77.13 132.58l-8 4.62M42.5 81.5l-8 4.62" fill="#398ccb"/></svg>
